<svg viewBox="0 0 29 32" fill="none" xmlns="http://www.w3.org/2000/svg">
<path d="M28.7333 23.0476L22.6878 19.9512L8.05859 28.9119L14.1041 32.0001L28.7333 23.0476Z" fill="#3C8BDB"/>
<path d="M28.7313 23.0466L28.7231 7.2113L14.6278 0H14.6196L14.6278 6.79242L18.6527 8.84576L14.6278 11.3098L14.6361 15.8353L18.6609 17.8968L22.694 15.4246V19.9502L28.7313 23.0466Z" fill="#409AE5"/>
<path d="M18.6622 17.8968L4.03308 26.8494L18.6622 17.8968L14.6374 15.8353L14.6292 11.3098L0 20.2623L0.00821401 24.7878L4.03308 26.8494L18.6622 17.8968ZM14.6292 0L0 8.95253V15.7449L14.6292 6.78421V0Z" fill="#3C8BDB"/>
<path d="M18.6627 8.84573L4.02536 17.7983L0.000488281 15.7449L14.6297 6.78418L18.6627 8.84573ZM22.6958 15.4246L8.05844 24.3853V28.9109L22.6958 19.9501V15.4246Z" fill="#214FA4"/>
</svg>
